<svg width="24" height="24" viewBox="0 0 24 24" fill="none" xmlns="http://www.w3.org/2000/svg">
<path d="M4 18V22H20V2H4V6M3 15H5M3 12H5M3 9H5" stroke="#15A3D7" stroke-width="2" stroke-linecap="round" stroke-linejoin="round"/>
<path d="M12 10.5C13.1046 10.5 14 9.60457 14 8.5C14 7.39543 13.1046 6.5 12 6.5C10.8954 6.5 10 7.39543 10 8.5C10 9.60457 10.8954 10.5 12 10.5Z" stroke="#15A3D7" stroke-width="2" stroke-linecap="round" stroke-linejoin="round"/>
<path d="M16 17.5C16 16.4391 15.5786 15.4217 14.8284 14.6716C14.0783 13.9214 13.0609 13.5 12 13.5C10.9391 13.5 9.92172 13.9214 9.17157 14.6716C8.42143 15.4217 8 16.4391 8 17.5" stroke="#15A3D7" stroke-width="2" stroke-linecap="round" stroke-linejoin="round"/>
</svg>
