<svg width="24" height="24" viewBox="0 0 24 24" fill="none" xmlns="http://www.w3.org/2000/svg">
<path fill-rule="evenodd" clip-rule="evenodd" d="M14.1258 19.972C13.9038 20.136 13.6628 20.272 13.3978 20.342C12.6518 20.542 11.8368 20.244 11.1248 20.044C6.35178 18.701 3.15478 16.598 2.23778 13.46C1.50578 10.954 2.20978 8.44396 3.75778 6.88396C5.19178 5.43896 7.31779 4.85296 9.49879 5.79196C10.9188 3.88796 13.0538 3.33196 15.0178 3.86696C17.1378 4.44396 19.0018 6.26596 19.6208 8.80196C19.7421 9.29929 19.8031 9.80563 19.8038 10.321C20.0598 10.4523 20.2998 10.6123 20.5238 10.801C21.6808 11.78 22.2988 13.443 21.9538 15.172C21.5138 17.378 19.4688 18.927 16.5438 20.033C16.0428 20.223 15.4948 20.458 14.9478 20.362C14.6438 20.308 14.3718 20.152 14.1258 19.972ZM4.15778 12.899C3.62278 11.066 4.16078 9.31796 5.17778 8.29296C6.15378 7.30896 7.60078 6.94296 9.20078 7.87896C9.75978 8.20596 10.4808 8.01196 10.8008 7.45096C11.7188 5.83996 13.1548 5.43296 14.4918 5.79696C15.8858 6.17696 17.2258 7.42096 17.6778 9.27596C17.7331 9.49863 17.7698 9.72696 17.7878 9.96096C17.4214 10.0078 17.0641 10.1093 16.7278 10.262C15.6538 9.21496 14.2318 9.00896 12.9778 9.47096C11.5558 9.99396 10.4058 11.346 10.1378 13.089C9.86479 14.874 10.7078 16.614 12.2768 18.287C12.0788 18.237 11.8738 18.177 11.6668 18.119C7.03579 16.816 4.76678 14.984 4.15778 12.899ZM12.1158 13.392C12.2758 12.342 12.9548 11.611 13.6688 11.347C14.3288 11.105 15.0618 11.232 15.6188 12.037C15.7018 12.1569 15.8078 12.2592 15.9307 12.3379C16.0535 12.4167 16.1907 12.4703 16.3344 12.4957C16.478 12.521 16.6253 12.5177 16.7677 12.4858C16.91 12.454 17.0447 12.3942 17.1638 12.31C17.9638 11.743 18.6958 11.875 19.2318 12.328C19.8138 12.82 20.1998 13.74 19.9918 14.781C19.7668 15.911 18.6238 17.109 15.8368 18.162C15.6598 18.229 15.4838 18.301 15.3018 18.354C15.1488 18.241 15.0078 18.114 14.8638 17.991C12.6058 16.048 11.9408 14.531 12.1158 13.391V13.392Z" fill="#FE1A1A"/>
</svg>
