<svg width="49" height="48" viewBox="0 0 49 48" fill="none" xmlns="http://www.w3.org/2000/svg">
<rect x="0.5" width="48" height="48" rx="8" fill="url(#paint0_linear_84_440)"/>
<path d="M37 29H29.5V26.5H37V29ZM42 39H34.5V36.5H42V39ZM39.5 34H32V31.5H39.5V34Z" fill="#53D253"/>
<path d="M25.7542 29C25.7448 27.9454 25.4632 26.9111 24.9368 25.9972C24.4103 25.0834 23.6568 24.3209 22.7492 23.7837L32.0005 7.75L29.838 6.5L20.3667 22.9075C19.2043 22.6479 17.9954 22.6839 16.8506 23.0121C15.7057 23.3403 14.6613 23.9503 13.813 24.7862C9.13298 29.3 9.49548 39.8525 9.51298 40.3C9.5259 40.6228 9.66328 40.928 9.89631 41.1517C10.1293 41.3754 10.4399 41.5003 10.763 41.5H29.5017C29.7641 41.5 30.0198 41.4175 30.2326 41.2641C30.4454 41.1107 30.6046 40.8942 30.6876 40.6453C30.7705 40.3964 30.7731 40.1277 30.6949 39.8773C30.6166 39.6269 30.4616 39.4074 30.2517 39.25C25.8267 35.93 25.7542 29.0675 25.7542 29ZM19.413 25.2463C20.4134 25.2572 21.3712 25.6535 22.0868 26.3527C22.8025 27.0519 23.2211 28.0001 23.2555 29C23.2555 29.0475 23.258 29.26 23.2767 29.5863L15.9017 26.3062C16.3875 25.9057 16.9481 25.6057 17.5509 25.4237C18.1537 25.2417 18.7867 25.1814 19.413 25.2463ZM23.813 39C22.8138 37.9826 22.177 36.665 22.0005 35.25H19.5005C19.59 36.5803 20.0056 37.8682 20.7105 39H17.9317C17.4175 37.3778 17.1047 35.6985 17.0005 34H14.5005C14.5806 35.6935 14.8596 37.3717 15.3317 39H12.0005C12.0392 36.705 12.363 31.635 14.2542 28.3088L23.6705 32.4963C24.1219 34.8457 25.0865 37.0665 26.4955 39H23.813Z" fill="#53D253"/>
<defs>
<linearGradient id="paint0_linear_84_440" x1="24.5" y1="-43.2" x2="24.5" y2="48" gradientUnits="userSpaceOnUse">
<stop/>
<stop offset="1" stop-color="#737373"/>
</linearGradient>
</defs>
</svg>
