<svg width="39" height="42" viewBox="0 0 39 42" fill="none" xmlns="http://www.w3.org/2000/svg">
<rect x="0.5" y="0.485718" width="38" height="40.5714" rx="8" fill="url(#paint0_linear_84_521)"/>
<path d="M12.2153 20.7709H31.1579C31.5444 20.7709 31.915 20.9244 32.1883 21.1977C32.4616 21.4709 32.6151 21.8415 32.6151 22.228C32.6151 24.1603 31.8475 26.0134 30.4812 27.3797C29.1148 28.7461 27.2617 29.5136 25.3294 29.5136H24.4581C24.328 29.5136 24.2003 29.5485 24.0883 29.6145C23.9762 29.6805 23.8839 29.7753 23.8208 29.889C23.7578 30.0028 23.7263 30.1313 23.7297 30.2613C23.7332 30.3913 23.7713 30.5181 23.8402 30.6284L26.09 34.2275C26.159 34.3377 26.1971 34.4645 26.2005 34.5945C26.204 34.7245 26.1725 34.853 26.1095 34.9668C26.0464 35.0805 25.9541 35.1753 25.842 35.2413C25.73 35.3074 25.6023 35.3422 25.4722 35.3422H9.88677C9.75672 35.3422 9.62903 35.3074 9.51698 35.2413C9.40492 35.1753 9.31258 35.0805 9.24953 34.9668C9.18649 34.853 9.15504 34.7245 9.15845 34.5945C9.16187 34.4645 9.20002 34.3377 9.26895 34.2275L12.2153 29.5136" stroke="#53D253" stroke-width="3" stroke-linecap="round" stroke-linejoin="round"/>
<path d="M13.6724 29.5137C11.7401 29.5137 9.88696 28.7461 8.52063 27.3797C7.15431 26.0134 6.38672 24.1603 6.38672 22.228V9.11384C6.38672 8.34093 6.69376 7.59968 7.24029 7.05315C7.78681 6.50662 8.52807 6.19958 9.30098 6.19958H20.958C21.7309 6.19958 22.4722 6.50662 23.0187 7.05315C23.5652 7.59968 23.8723 8.34093 23.8723 9.11384V20.7709" stroke="#53D253" stroke-width="3" stroke-linecap="round" stroke-linejoin="round"/>
<defs>
<linearGradient id="paint0_linear_84_521" x1="19.5" y1="-36.0286" x2="19.5" y2="41.0572" gradientUnits="userSpaceOnUse">
<stop/>
<stop offset="1" stop-color="#737373"/>
</linearGradient>
</defs>
</svg>
