<svg width="45" height="45" viewBox="0 0 45 45" fill="none" xmlns="http://www.w3.org/2000/svg">
<rect x="0.5" y="0.5" width="44" height="44" rx="8" fill="url(#paint0_linear_84_467)"/>
<path d="M16.4999 16.4999V11.9999H19.4999V16.4999H16.4999ZM16.4999 29.9997V22.4998H19.4999V29.9997H16.4999ZM13.5 37.4996C12.675 37.4996 11.969 37.2061 11.382 36.6191C10.795 36.0321 10.501 35.3256 10.5 34.4996V10.5C10.5 9.67497 10.794 8.96898 11.382 8.38199C11.97 7.795 12.676 7.501 13.5 7.5H31.4997C32.3247 7.5 33.0312 7.794 33.6192 8.38199C34.2072 8.96998 34.5007 9.67597 34.4997 10.5V34.4996C34.4997 35.3246 34.2062 36.0311 33.6192 36.6191C33.0322 37.2071 32.3257 37.5006 31.4997 37.4996H13.5ZM13.5 34.4996H31.4997V20.9998H13.5V34.4996ZM13.5 17.9999H31.4997V10.5H13.5V17.9999Z" fill="#53D253"/>
<defs>
<linearGradient id="paint0_linear_84_467" x1="22.5" y1="-39.1" x2="22.5" y2="44.5" gradientUnits="userSpaceOnUse">
<stop/>
<stop offset="1" stop-color="#737373"/>
</linearGradient>
</defs>
</svg>
