<svg width="39" height="40" viewBox="0 0 39 40" fill="none" xmlns="http://www.w3.org/2000/svg">
<rect y="0.485718" width="39" height="39" rx="8" fill="url(#paint0_linear_84_630)"/>
<path d="M34 5.48572L21.1111 19.1802M15.3852 18.5116C11.3897 20.0453 8.19483 19.7827 5 18.5164C5.80556 28.8968 10.6453 32.8875 17.0978 34.4857C17.0978 34.4857 21.9586 31.0476 22.6594 22.897C22.7351 22.0141 22.7722 21.5743 22.5901 21.0764C22.4064 20.5786 22.0456 20.2226 21.3254 19.5088C20.1396 18.3359 19.5483 17.7495 18.8443 17.6013C18.1402 17.4563 17.2219 17.8075 15.3852 18.5116Z" stroke="#53D253" stroke-width="2.49462" stroke-linecap="round" stroke-linejoin="round"/>
<path d="M7.41602 27.1489C7.41602 27.1489 11.4438 27.9287 15.4716 24.8193M17.8882 7.09705V7.25816M13.8605 12.3332C13.8605 12.8673 13.6483 13.3795 13.2706 13.7572C12.8929 14.1349 12.3807 14.347 11.8466 14.347C11.3125 14.347 10.8002 14.1349 10.4225 13.7572C10.0449 13.3795 9.83268 12.8673 9.83268 12.3332C9.83268 11.799 10.0449 11.2868 10.4225 10.9091C10.8002 10.5314 11.3125 10.3193 11.8466 10.3193C12.3807 10.3193 12.8929 10.5314 13.2706 10.9091C13.6483 11.2868 13.8605 11.799 13.8605 12.3332Z" stroke="#53D253" stroke-width="2.49462" stroke-linecap="round" stroke-linejoin="round"/>
<defs>
<linearGradient id="paint0_linear_84_630" x1="19.5" y1="-34.6143" x2="19.5" y2="39.4857" gradientUnits="userSpaceOnUse">
<stop/>
<stop offset="1" stop-color="#737373"/>
</linearGradient>
</defs>
</svg>
