<svg width="45" height="45" viewBox="0 0 45 45" fill="none" xmlns="http://www.w3.org/2000/svg">
<rect width="45" height="45" rx="8" fill="url(#paint0_linear_84_494)"/>
<path d="M15.0008 9.375C14.0633 9.375 13.1259 9.76874 12.3946 10.5C11.6634 11.2312 11.2509 12.0937 11.2509 13.1249V18.7498C10.2572 18.7498 9.37594 19.106 8.6072 19.856C7.83847 20.606 7.50098 21.506 7.50098 22.4997V31.8745H10.0134L11.2509 35.6244H13.1259L14.4196 31.8745H30.6755L31.8754 35.6244H33.7504L34.9879 31.8745H37.5003V22.4997C37.5003 21.506 37.1441 20.6248 36.3941 19.856C35.6441 19.0873 34.7441 18.7498 33.7504 18.7498V13.1249C33.7504 12.0937 33.3754 11.25 32.6067 10.5C31.8379 9.74999 30.938 9.375 30.0005 9.375M15.0008 13.1249H20.6257V18.7498H15.0008M24.3756 13.1249H30.0005V18.7498H24.3756M11.2509 22.4997H33.7504V28.1246H11.2509V22.4997Z" fill="#53D253"/>
<defs>
<linearGradient id="paint0_linear_84_494" x1="22.5" y1="-40.5" x2="22.5" y2="45" gradientUnits="userSpaceOnUse">
<stop/>
<stop offset="1" stop-color="#737373"/>
</linearGradient>
</defs>
</svg>
