<svg width="39" height="40" viewBox="0 0 39 40" fill="none" xmlns="http://www.w3.org/2000/svg">
<rect y="0.5" width="39" height="39" rx="8" fill="url(#paint0_linear_84_576)"/>
<path d="M17.5625 33.5625H19.5V35.5H4V33.5625H5.9375V20.9688C5.9375 20.2018 6.07878 19.4803 6.36133 18.8042C6.64388 18.1281 7.02734 17.5277 7.51172 17.0029C7.99609 16.4782 8.57129 16.0544 9.2373 15.7314C9.90332 15.4085 10.6198 15.2218 11.3867 15.1714L20.5898 5.68066C20.943 5.31738 21.3568 5.02979 21.8311 4.81787C22.3053 4.60596 22.7998 4.5 23.3145 4.5C23.6777 4.5 24.041 4.55046 24.4043 4.65137C24.7676 4.75228 25.1107 4.8986 25.4336 5.09033C25.7565 5.28206 26.0441 5.51416 26.2964 5.78662C26.5487 6.05908 26.7555 6.36686 26.917 6.70996L32.7295 19.6973C32.901 20.0706 32.9868 20.4894 32.9868 20.9536C32.9868 21.3573 32.9162 21.7357 32.7749 22.0889C32.6336 22.4421 32.4318 22.7498 32.1694 23.0122C31.9071 23.2746 31.5993 23.4865 31.2461 23.6479C30.8929 23.8094 30.5145 23.8851 30.1108 23.875C29.5356 23.875 29.0109 23.7186 28.5366 23.4058C28.0623 23.0929 27.7041 22.6742 27.4619 22.1494L23.6626 13.6426L17.4868 20.0151C17.507 20.1766 17.5221 20.333 17.5322 20.4844C17.5423 20.6357 17.5524 20.7972 17.5625 20.9688V33.5625ZM25.1006 12.1592L28.0977 18.8193L29.8687 18.0625L26.5386 10.6001C26.3468 10.8927 26.1198 11.1652 25.8574 11.4175C25.5951 11.6698 25.3428 11.917 25.1006 12.1592ZM31.0645 20.9536C31.0645 20.7518 31.019 20.5601 30.9282 20.3784C30.8374 20.1968 30.7516 20.0151 30.6709 19.8335L28.8848 20.5903C28.9554 20.7417 29.021 20.8931 29.0815 21.0444C29.1421 21.1958 29.2178 21.3421 29.3086 21.4834C29.3994 21.6247 29.5054 21.7306 29.6265 21.8013C29.7476 21.8719 29.9141 21.9173 30.126 21.9375C30.3984 21.9375 30.6204 21.8416 30.792 21.6499C30.9635 21.4582 31.0544 21.2261 31.0645 20.9536ZM13.748 15.5044C14.3737 15.7365 14.9438 16.0645 15.4585 16.4883C15.9731 16.9121 16.402 17.4116 16.7451 17.9868L24.7676 9.72217C24.9492 9.53044 25.0854 9.31852 25.1763 9.08643C25.2671 8.85433 25.3125 8.6071 25.3125 8.34473C25.3125 8.08236 25.262 7.83512 25.1611 7.60303C25.0602 7.37093 24.924 7.16911 24.7524 6.99756C24.5809 6.82601 24.3791 6.68978 24.147 6.58887C23.9149 6.48796 23.6676 6.4375 23.4053 6.4375C22.8402 6.4375 22.3659 6.63428 21.9824 7.02783L13.748 15.5044ZM7.875 33.5625H15.625V20.9688C15.625 20.4339 15.5241 19.9344 15.3223 19.4702C15.1204 19.006 14.8429 18.5923 14.4897 18.229C14.1366 17.8657 13.7279 17.5882 13.2637 17.3965C12.7995 17.2048 12.2949 17.1038 11.75 17.0938C11.2152 17.0938 10.7157 17.1947 10.2515 17.3965C9.78727 17.5983 9.37354 17.8758 9.01025 18.229C8.64697 18.5822 8.36947 18.9909 8.17773 19.4551C7.986 19.9193 7.88509 20.4238 7.875 20.9688V33.5625ZM11.75 20C12.0225 20 12.2747 20.0505 12.5068 20.1514C12.7389 20.2523 12.9408 20.3885 13.1123 20.5601C13.2839 20.7316 13.4251 20.9385 13.5361 21.1807C13.6471 21.4229 13.6976 21.6751 13.6875 21.9375C13.6875 22.21 13.637 22.4622 13.5361 22.6943C13.4352 22.9264 13.299 23.1283 13.1274 23.2998C12.9559 23.4714 12.749 23.6126 12.5068 23.7236C12.2646 23.8346 12.0124 23.8851 11.75 23.875C11.4775 23.875 11.2253 23.8245 10.9932 23.7236C10.7611 23.6227 10.5592 23.4865 10.3877 23.3149C10.2161 23.1434 10.0749 22.9365 9.96387 22.6943C9.85286 22.4521 9.80241 22.1999 9.8125 21.9375C9.8125 21.665 9.86296 21.4128 9.96387 21.1807C10.0648 20.9486 10.201 20.7467 10.3726 20.5752C10.5441 20.4036 10.751 20.2624 10.9932 20.1514C11.2354 20.0404 11.4876 19.9899 11.75 20ZM25.3125 31.625V29.6875H35V31.625H25.3125ZM25.3125 25.8125H35V27.75H25.3125V25.8125ZM21.4375 27.75V25.8125H23.375V27.75H21.4375ZM25.3125 35.5V33.5625H35V35.5H25.3125ZM21.4375 35.5V33.5625H23.375V35.5H21.4375ZM21.4375 31.625V29.6875H23.375V31.625H21.4375Z" fill="#53D253"/>
<defs>
<linearGradient id="paint0_linear_84_576" x1="19.5" y1="-34.6" x2="19.5" y2="39.5" gradientUnits="userSpaceOnUse">
<stop/>
<stop offset="1" stop-color="#737373"/>
</linearGradient>
</defs>
</svg>
