<svg width="43" height="43" viewBox="0 0 43 43" fill="none" xmlns="http://www.w3.org/2000/svg">
<rect width="43" height="43" rx="8" fill="url(#paint0_linear_84_549)"/>
<path d="M25.1458 30.25C24.125 30.25 23.2622 29.8976 22.5573 29.1927C21.8524 28.4879 21.5 27.625 21.5 26.6042C21.5 25.5834 21.8524 24.7205 22.5573 24.0156C23.2622 23.3108 24.125 22.9584 25.1458 22.9584C26.1667 22.9584 27.0295 23.3108 27.7344 24.0156C28.4392 24.7205 28.7917 25.5834 28.7917 26.6042C28.7917 27.625 28.4392 28.4879 27.7344 29.1927C27.0295 29.8976 26.1667 30.25 25.1458 30.25ZM11.2917 36.0834C10.4896 36.0834 9.80319 35.798 9.2325 35.2273C8.66181 34.6566 8.37597 33.9697 8.375 33.1667V12.75C8.375 11.9479 8.66083 11.2615 9.2325 10.6909C9.80417 10.1202 10.4906 9.83433 11.2917 9.83335H12.75V6.91669H15.6667V9.83335H27.3333V6.91669H30.25V9.83335H31.7083C32.5104 9.83335 33.1973 10.1192 33.769 10.6909C34.3406 11.2625 34.626 11.9489 34.625 12.75V33.1667C34.625 33.9688 34.3397 34.6556 33.769 35.2273C33.1983 35.799 32.5114 36.0843 31.7083 36.0834H11.2917ZM11.2917 33.1667H31.7083V18.5834H11.2917V33.1667ZM11.2917 15.6667H31.7083V12.75H11.2917V15.6667Z" fill="#53D253"/>
<defs>
<linearGradient id="paint0_linear_84_549" x1="21.5" y1="-38.7" x2="21.5" y2="43" gradientUnits="userSpaceOnUse">
<stop/>
<stop offset="1" stop-color="#737373"/>
</linearGradient>
</defs>
</svg>
