<svg width="37" height="37" viewBox="0 0 37 37" fill="none" xmlns="http://www.w3.org/2000/svg">
<path d="M10.9998 5.375C10.0624 5.375 9.12488 5.76874 8.39364 6.49998C7.66241 7.23121 7.24992 8.09369 7.24992 9.12492V14.7498C6.25619 14.7498 5.37496 15.106 4.60623 15.856C3.83749 16.606 3.5 17.506 3.5 18.4997V27.8745H6.01245L7.24992 31.6244H9.12488L10.4186 27.8745H26.6745L27.8745 31.6244H29.7494L30.9869 27.8745H33.4993V18.4997C33.4993 17.506 33.1431 16.6248 32.3931 15.856C31.6431 15.0873 30.7432 14.7498 29.7494 14.7498V9.12492C29.7494 8.09369 29.3744 7.24996 28.6057 6.49998C27.837 5.74999 26.937 5.375 25.9995 5.375M10.9998 9.12492H16.6247V14.7498H10.9998M20.3746 9.12492H25.9995V14.7498H20.3746M7.24992 18.4997H29.7494V24.1246H7.24992V18.4997Z" fill="#53D253"/>
</svg>
