<svg width="35" height="35" viewBox="0 0 35 35" fill="none" xmlns="http://www.w3.org/2000/svg">
<path d="M21.1458 26.2503C20.125 26.2503 19.2622 25.8979 18.5573 25.193C17.8524 24.4882 17.5 23.6253 17.5 22.6045C17.5 21.5837 17.8524 20.7208 18.5573 20.016C19.2622 19.3111 20.125 18.9587 21.1458 18.9587C22.1667 18.9587 23.0295 19.3111 23.7344 20.016C24.4392 20.7208 24.7917 21.5837 24.7917 22.6045C24.7917 23.6253 24.4392 24.4882 23.7344 25.193C23.0295 25.8979 22.1667 26.2503 21.1458 26.2503ZM7.29167 32.0837C6.48958 32.0837 5.80319 31.7983 5.2325 31.2276C4.66181 30.6569 4.37597 29.97 4.375 29.167V8.75033C4.375 7.94824 4.66083 7.26185 5.2325 6.69116C5.80417 6.12046 6.49056 5.83463 7.29167 5.83366H8.75V2.91699H11.6667V5.83366H23.3333V2.91699H26.25V5.83366H27.7083C28.5104 5.83366 29.1973 6.11949 29.769 6.69116C30.3406 7.26283 30.626 7.94921 30.625 8.75033V29.167C30.625 29.9691 30.3397 30.656 29.769 31.2276C29.1983 31.7993 28.5114 32.0846 27.7083 32.0837H7.29167ZM7.29167 29.167H27.7083V14.5837H7.29167V29.167ZM7.29167 11.667H27.7083V8.75033H7.29167V11.667Z" fill="#53D253"/>
</svg>
