<svg width="31" height="34" viewBox="0 0 31 34" fill="none" xmlns="http://www.w3.org/2000/svg">
<path d="M8.21526 16.7705H27.1579C27.5444 16.7705 27.915 16.924 28.1883 17.1973C28.4616 17.4706 28.6151 17.8412 28.6151 18.2276C28.6151 20.1599 27.8475 22.013 26.4812 23.3794C25.1148 24.7457 23.2617 25.5133 21.3294 25.5133H20.4581C20.328 25.5133 20.2003 25.5481 20.0883 25.6141C19.9762 25.6801 19.8839 25.7749 19.8208 25.8887C19.7578 26.0024 19.7263 26.131 19.7297 26.261C19.7332 26.391 19.7713 26.5177 19.8402 26.628L22.09 30.2271C22.159 30.3374 22.1971 30.4641 22.2005 30.5941C22.204 30.7241 22.1725 30.8527 22.1095 30.9664C22.0464 31.0802 21.9541 31.175 21.842 31.241C21.73 31.307 21.6023 31.3418 21.4722 31.3418H5.88677C5.75672 31.3418 5.62903 31.307 5.51698 31.241C5.40492 31.175 5.31258 31.0802 5.24953 30.9664C5.18649 30.8527 5.15504 30.7241 5.15845 30.5941C5.16187 30.4641 5.20002 30.3374 5.26895 30.2271L8.21526 25.5133" stroke="#53D253" stroke-width="3" stroke-linecap="round" stroke-linejoin="round"/>
<path d="M9.67236 25.5133C7.74009 25.5133 5.88696 24.7457 4.52063 23.3794C3.15431 22.013 2.38672 20.1599 2.38672 18.2276V5.11348C2.38672 4.34057 2.69376 3.59931 3.24029 3.05279C3.78681 2.50626 4.52807 2.19922 5.30098 2.19922H16.958C17.7309 2.19922 18.4722 2.50626 19.0187 3.05279C19.5652 3.59931 19.8723 4.34057 19.8723 5.11348V16.7705" stroke="#53D253" stroke-width="3" stroke-linecap="round" stroke-linejoin="round"/>
</svg>
