<svg width="33" height="32" viewBox="0 0 33 32" fill="none" xmlns="http://www.w3.org/2000/svg">
<path d="M31 1.48535L18.1111 15.1798M12.3852 14.5112C8.38967 16.045 5.19483 15.7824 2 14.516C2.80556 24.8964 7.64533 28.8871 14.0978 30.4854C14.0978 30.4854 18.9586 27.0472 19.6594 18.8966C19.7351 18.0137 19.7722 17.5739 19.5901 17.0761C19.4064 16.5782 19.0456 16.2222 18.3254 15.5085C17.1396 14.3356 16.5483 13.7491 15.8443 13.6009C15.1402 13.4559 14.2219 13.8071 12.3852 14.5112Z" stroke="#53D253" stroke-width="2.49462" stroke-linecap="round" stroke-linejoin="round"/>
<path d="M4.41602 23.1486C4.41602 23.1486 8.44379 23.9283 12.4716 20.8189M14.8882 3.09668V3.25779M10.8605 8.33279C10.8605 8.86691 10.6483 9.37915 10.2706 9.75683C9.89293 10.1345 9.38069 10.3467 8.84657 10.3467C8.31246 10.3467 7.80021 10.1345 7.42254 9.75683C7.04486 9.37915 6.83268 8.86691 6.83268 8.33279C6.83268 7.79867 7.04486 7.28643 7.42254 6.90876C7.80021 6.53108 8.31246 6.3189 8.84657 6.3189C9.38069 6.3189 9.89293 6.53108 10.2706 6.90876C10.6483 7.28643 10.8605 7.79867 10.8605 8.33279Z" stroke="#53D253" stroke-width="2.49462" stroke-linecap="round" stroke-linejoin="round"/>
</svg>
