<svg width="37" height="37" viewBox="0 0 37 37" fill="none" xmlns="http://www.w3.org/2000/svg">
<path d="M12.4999 12.4999V7.99994H15.4999V12.4999H12.4999ZM12.4999 25.9997V18.4998H15.4999V25.9997H12.4999ZM9.49996 33.4996C8.67497 33.4996 7.96898 33.2061 7.38199 32.6191C6.795 32.0321 6.501 31.3256 6.5 30.4996V6.49996C6.5 5.67497 6.794 4.96898 7.38199 4.38199C7.96998 3.795 8.67597 3.501 9.49996 3.5H27.4997C28.3247 3.5 29.0312 3.794 29.6192 4.38199C30.2072 4.96998 30.5007 5.67597 30.4997 6.49996V30.4996C30.4997 31.3246 30.2062 32.0311 29.6192 32.6191C29.0322 33.2071 28.3257 33.5006 27.4997 33.4996H9.49996ZM9.49996 30.4996H27.4997V16.9998H9.49996V30.4996ZM9.49996 13.9999H27.4997V6.49996H9.49996V13.9999Z" fill="#53D253"/>
</svg>
