<svg width="31" height="32" viewBox="0 0 31 32" fill="none" xmlns="http://www.w3.org/2000/svg">
<path d="M13.5625 29.5625H15.5V31.5H0V29.5625H1.9375V16.9688C1.9375 16.2018 2.07878 15.4803 2.36133 14.8042C2.64388 14.1281 3.02734 13.5277 3.51172 13.0029C3.99609 12.4782 4.57129 12.0544 5.2373 11.7314C5.90332 11.4085 6.61979 11.2218 7.38672 11.1714L16.5898 1.68066C16.943 1.31738 17.3568 1.02979 17.8311 0.817871C18.3053 0.605957 18.7998 0.5 19.3145 0.5C19.6777 0.5 20.041 0.550456 20.4043 0.651367C20.7676 0.752279 21.1107 0.8986 21.4336 1.09033C21.7565 1.28206 22.0441 1.51416 22.2964 1.78662C22.5487 2.05908 22.7555 2.36686 22.917 2.70996L28.7295 15.6973C28.901 16.0706 28.9868 16.4894 28.9868 16.9536C28.9868 17.3573 28.9162 17.7357 28.7749 18.0889C28.6336 18.4421 28.4318 18.7498 28.1694 19.0122C27.9071 19.2746 27.5993 19.4865 27.2461 19.6479C26.8929 19.8094 26.5145 19.8851 26.1108 19.875C25.5356 19.875 25.0109 19.7186 24.5366 19.4058C24.0623 19.0929 23.7041 18.6742 23.4619 18.1494L19.6626 9.64258L13.4868 16.0151C13.507 16.1766 13.5221 16.333 13.5322 16.4844C13.5423 16.6357 13.5524 16.7972 13.5625 16.9688V29.5625ZM21.1006 8.15918L24.0977 14.8193L25.8687 14.0625L22.5386 6.6001C22.3468 6.89274 22.1198 7.1652 21.8574 7.41748C21.5951 7.66976 21.3428 7.91699 21.1006 8.15918ZM27.0645 16.9536C27.0645 16.7518 27.019 16.5601 26.9282 16.3784C26.8374 16.1968 26.7516 16.0151 26.6709 15.8335L24.8848 16.5903C24.9554 16.7417 25.021 16.8931 25.0815 17.0444C25.1421 17.1958 25.2178 17.3421 25.3086 17.4834C25.3994 17.6247 25.5054 17.7306 25.6265 17.8013C25.7476 17.8719 25.9141 17.9173 26.126 17.9375C26.3984 17.9375 26.6204 17.8416 26.792 17.6499C26.9635 17.4582 27.0544 17.2261 27.0645 16.9536ZM9.74805 11.5044C10.3737 11.7365 10.9438 12.0645 11.4585 12.4883C11.9731 12.9121 12.402 13.4116 12.7451 13.9868L20.7676 5.72217C20.9492 5.53044 21.0854 5.31852 21.1763 5.08643C21.2671 4.85433 21.3125 4.6071 21.3125 4.34473C21.3125 4.08236 21.262 3.83512 21.1611 3.60303C21.0602 3.37093 20.924 3.16911 20.7524 2.99756C20.5809 2.82601 20.3791 2.68978 20.147 2.58887C19.9149 2.48796 19.6676 2.4375 19.4053 2.4375C18.8402 2.4375 18.3659 2.63428 17.9824 3.02783L9.74805 11.5044ZM3.875 29.5625H11.625V16.9688C11.625 16.4339 11.5241 15.9344 11.3223 15.4702C11.1204 15.006 10.8429 14.5923 10.4897 14.229C10.1366 13.8657 9.72786 13.5882 9.26367 13.3965C8.79948 13.2048 8.29492 13.1038 7.75 13.0938C7.21517 13.0938 6.71566 13.1947 6.25146 13.3965C5.78727 13.5983 5.37354 13.8758 5.01025 14.229C4.64697 14.5822 4.36947 14.9909 4.17773 15.4551C3.986 15.9193 3.88509 16.4238 3.875 16.9688V29.5625ZM7.75 16C8.02246 16 8.27474 16.0505 8.50684 16.1514C8.73893 16.2523 8.94075 16.3885 9.1123 16.5601C9.28385 16.7316 9.42513 16.9385 9.53613 17.1807C9.64714 17.4229 9.69759 17.6751 9.6875 17.9375C9.6875 18.21 9.63704 18.4622 9.53613 18.6943C9.43522 18.9264 9.29899 19.1283 9.12744 19.2998C8.95589 19.4714 8.74902 19.6126 8.50684 19.7236C8.26465 19.8346 8.01237 19.8851 7.75 19.875C7.47754 19.875 7.22526 19.8245 6.99316 19.7236C6.76107 19.6227 6.55924 19.4865 6.3877 19.3149C6.21615 19.1434 6.07487 18.9365 5.96387 18.6943C5.85286 18.4521 5.80241 18.1999 5.8125 17.9375C5.8125 17.665 5.86296 17.4128 5.96387 17.1807C6.06478 16.9486 6.20101 16.7467 6.37256 16.5752C6.54411 16.4036 6.75098 16.2624 6.99316 16.1514C7.23535 16.0404 7.48763 15.9899 7.75 16ZM21.3125 27.625V25.6875H31V27.625H21.3125ZM21.3125 21.8125H31V23.75H21.3125V21.8125ZM17.4375 23.75V21.8125H19.375V23.75H17.4375ZM21.3125 31.5V29.5625H31V31.5H21.3125ZM17.4375 31.5V29.5625H19.375V31.5H17.4375ZM17.4375 27.625V25.6875H19.375V27.625H17.4375Z" fill="#53D253"/>
</svg>
