<svg width="41" height="40" viewBox="0 0 41 40" fill="none" xmlns="http://www.w3.org/2000/svg">
<path d="M33 25H25.5V22.5H33V25ZM38 35H30.5V32.5H38V35ZM35.5 30H28V27.5H35.5V30Z" fill="#53D253"/>
<path d="M21.7542 25C21.7448 23.9454 21.4632 22.9111 20.9368 21.9972C20.4103 21.0834 19.6568 20.3209 18.7492 19.7837L28.0005 3.75L25.838 2.5L16.3667 18.9075C15.2043 18.6479 13.9954 18.6839 12.8506 19.0121C11.7057 19.3403 10.6613 19.9503 9.81298 20.7862C5.13298 25.3 5.49548 35.8525 5.51298 36.3C5.5259 36.6228 5.66328 36.928 5.89631 37.1517C6.12935 37.3754 6.43994 37.5003 6.76298 37.5H25.5017C25.7641 37.5 26.0198 37.4175 26.2326 37.2641C26.4454 37.1107 26.6046 36.8942 26.6876 36.6453C26.7705 36.3964 26.7731 36.1277 26.6949 35.8773C26.6166 35.6269 26.4616 35.4074 26.2517 35.25C21.8267 31.93 21.7542 25.0675 21.7542 25ZM15.413 21.2463C16.4134 21.2572 17.3712 21.6535 18.0868 22.3527C18.8025 23.0519 19.2211 24.0001 19.2555 25C19.2555 25.0475 19.258 25.26 19.2767 25.5863L11.9017 22.3062C12.3875 21.9057 12.9481 21.6057 13.5509 21.4237C14.1537 21.2417 14.7867 21.1814 15.413 21.2463ZM19.813 35C18.8138 33.9826 18.177 32.665 18.0005 31.25H15.5005C15.59 32.5803 16.0056 33.8682 16.7105 35H13.9317C13.4175 33.3778 13.1047 31.6985 13.0005 30H10.5005C10.5806 31.6935 10.8596 33.3717 11.3317 35H8.00048C8.03923 32.705 8.36298 27.635 10.2542 24.3088L19.6705 28.4963C20.1219 30.8457 21.0865 33.0665 22.4955 35H19.813Z" fill="#53D253"/>
</svg>
